<svg width="24" height="25" viewBox="0 0 24 25" fill="none" xmlns="http://www.w3.org/2000/svg">
<path d="M22.5 12.6445C22.5 18.4405 17.8013 23.1445 12 23.1445C6.19875 23.1445 1.5 18.4405 1.5 12.6445C1.5 6.84328 6.19875 2.14453 12 2.14453C17.8013 2.14453 22.5 6.84328 22.5 12.6445Z" fill="#F5F5F5"/>
<path d="M16.9216 9.98758C16.8643 10.021 15.5003 10.7264 15.5003 12.2905C15.5646 14.0741 17.2216 14.6996 17.25 14.6996C17.2216 14.7331 16.9999 15.5518 16.343 16.4099C15.8217 17.1492 15.2431 17.8945 14.3646 17.8945C13.5289 17.8945 13.2289 17.4019 12.2646 17.4019C11.229 17.4019 10.936 17.8945 10.1431 17.8945C9.2646 17.8945 8.64315 17.1093 8.09347 16.377C7.37932 15.4185 6.77233 13.9144 6.75091 12.4702C6.73646 11.7049 6.89391 10.9525 7.2936 10.3136C7.85775 9.42148 8.86485 8.81593 9.96472 8.79598C10.8074 8.76951 11.5574 9.33516 12.0717 9.33516C12.5646 9.33516 13.486 8.79598 14.5285 8.79598C14.9785 8.79643 16.1785 8.92273 16.9216 9.98758ZM12.0004 8.64321C11.8504 7.9443 12.2646 7.24542 12.6503 6.79961C13.1431 6.26047 13.9216 5.89453 14.5928 5.89453C14.6357 6.59342 14.3641 7.27884 13.8787 7.77805C13.4431 8.31718 12.6931 8.72308 12.0004 8.64321Z" fill="black"/>
</svg>
