<svg width="19" height="19" viewBox="0 0 19 19" fill="none" xmlns="http://www.w3.org/2000/svg">
<path d="M6.82 5.21453C6.45 4.09453 6.25 2.89453 6.25 1.64453C6.25 1.09453 5.8 0.644531 5.25 0.644531H1.75C1.2 0.644531 0.75 1.09453 0.75 1.64453C0.75 11.0345 8.36 18.6445 17.75 18.6445C18.3 18.6445 18.75 18.1945 18.75 17.6445V14.1545C18.75 13.6045 18.3 13.1545 17.75 13.1545C16.51 13.1545 15.3 12.9545 14.18 12.5845C14.08 12.5445 13.97 12.5345 13.87 12.5345C13.61 12.5345 13.36 12.6345 13.16 12.8245L10.96 15.0245C8.13 13.5745 5.81 11.2645 4.37 8.43453L6.57 6.23453C6.85 5.95453 6.93 5.56453 6.82 5.21453ZM14.15 14.6645C15 14.9045 15.87 15.0545 16.75 15.1145V16.6045C15.43 16.5145 14.16 16.2545 12.95 15.8545L14.15 14.6645ZM3.54 6.44453C3.13 5.23453 2.87 3.96453 2.78 2.64453H4.28C4.35 3.53453 4.5 4.40453 4.74 5.23453L3.54 6.44453Z" fill="#3DB588"/>
</svg>
