<svg width="25" height="24" viewBox="0 0 25 24" fill="none" xmlns="http://www.w3.org/2000/svg">
<g clip-path="url(#clip0_6465_55948)">
<path d="M18.75 11C18.75 11.67 18.75 12.33 18.75 13C19.95 13 21.51 13 22.75 13C22.75 12.33 22.75 11.67 22.75 11C21.51 11 19.95 11 18.75 11Z" fill="#F5F5F5"/>
<path d="M16.75 17.61C17.71 18.32 18.96 19.26 19.95 20C20.35 19.47 20.75 18.93 21.15 18.4C20.16 17.66 18.91 16.72 17.95 16C17.55 16.54 17.15 17.08 16.75 17.61Z" fill="#F5F5F5"/>
<path d="M21.15 5.6C20.75 5.07 20.35 4.53 19.95 4C18.96 4.74 17.71 5.68 16.75 6.4C17.15 6.93 17.55 7.47 17.95 8C18.91 7.28 20.16 6.35 21.15 5.6Z" fill="#F5F5F5"/>
<path d="M4.75 9C3.65 9 2.75 9.9 2.75 11V13C2.75 14.1 3.65 15 4.75 15H5.75V19H7.75V15H8.75L13.75 18V6L8.75 9H4.75ZM9.78 10.71L11.75 9.53V14.47L9.78 13.29L9.3 13H8.75H4.75V11H8.75H9.3L9.78 10.71Z" fill="#F5F5F5"/>
<path d="M16.25 11.9984C16.25 10.6684 15.67 9.46844 14.75 8.64844V15.3384C15.67 14.5284 16.25 13.3284 16.25 11.9984Z" fill="#F5F5F5"/>
<path opacity="0.3" d="M9.78 10.7113L11.75 9.53125V14.4713L9.78 13.2913L9.3 13.0013H8.75H4.75V11.0013H8.75H9.3L9.78 10.7113Z" fill="#F5F5F5"/>
</g>
<defs>
<clipPath id="clip0_6465_55948">
<rect width="24" height="24" fill="white" transform="translate(0.75)"/>
</clipPath>
</defs>
</svg>
