<svg width="25" height="25" viewBox="0 0 25 25" fill="none" xmlns="http://www.w3.org/2000/svg">
<g clip-path="url(#clip0_421_9410)">
<path opacity="0.3" d="M20.25 8.64453L12.25 13.6445L4.25 8.64453V18.6445H20.25V8.64453ZM20.25 6.64453H4.25L12.25 11.6345L20.25 6.64453Z" fill="#3C4553"/>
<path d="M4.25 20.6445H20.25C21.35 20.6445 22.25 19.7445 22.25 18.6445V6.64453C22.25 5.54453 21.35 4.64453 20.25 4.64453H4.25C3.15 4.64453 2.25 5.54453 2.25 6.64453V18.6445C2.25 19.7445 3.15 20.6445 4.25 20.6445ZM20.25 6.64453L12.25 11.6345L4.25 6.64453H20.25ZM4.25 8.64453L12.25 13.6445L20.25 8.64453V18.6445H4.25V8.64453Z" fill="#3C4553"/>
</g>
<defs>
<clipPath id="clip0_421_9410">
<rect width="24" height="24" fill="white" transform="translate(0.25 0.644531)"/>
</clipPath>
</defs>
</svg>
