<svg width="24" height="25" viewBox="0 0 24 25" fill="none" xmlns="http://www.w3.org/2000/svg">
<path d="M22.5011 12.8771C22.5011 12.0138 22.4296 11.3838 22.2749 10.7305H12.2153V14.6271H18.1201C18.0011 15.5955 17.3582 17.0538 15.9296 18.0337L15.9095 18.1642L19.0902 20.5789L19.3106 20.6005C21.3344 18.7688 22.5011 16.0738 22.5011 12.8771Z" fill="#F5F5F5"/>
<path d="M12.2145 23.1461C15.1073 23.1461 17.5358 22.2127 19.3097 20.6027L15.9287 18.0359C15.024 18.6543 13.8097 19.0859 12.2145 19.0859C9.38121 19.0859 6.97645 17.2544 6.11923 14.7227L5.99358 14.7331L2.68632 17.2415L2.64307 17.3593C4.40495 20.7893 8.02401 23.1461 12.2145 23.1461Z" fill="#34A853"/>
<path d="M6.11998 14.7201C5.89379 14.0667 5.76289 13.3667 5.76289 12.6434C5.76289 11.92 5.89379 11.22 6.10808 10.5667L6.10208 10.4275L2.75337 7.87891L2.64381 7.92998C1.91765 9.35335 1.50098 10.9517 1.50098 12.6434C1.50098 14.335 1.91765 15.9333 2.64381 17.3567L6.11998 14.7201Z" fill="#FBBC05"/>
<path d="M12.2146 6.20451C14.2264 6.20451 15.5836 7.05617 16.3574 7.76788L19.3812 4.87453C17.5241 3.18287 15.1074 2.14453 12.2146 2.14453C8.02401 2.14453 4.40496 4.50118 2.64307 7.93115L6.10735 10.5679C6.97648 8.03619 9.38121 6.20451 12.2146 6.20451Z" fill="#EB4335"/>
</svg>
