<svg width="51" height="82" viewBox="0 0 51 82" fill="none" xmlns="http://www.w3.org/2000/svg">
<g clip-path="url(#clip0_574_32349)">
<path d="M0 8C0 3.58172 3.58172 0 8 0H43C47.4183 0 51 3.58172 51 8V74C51 78.4183 47.4183 82 43 82H8C3.58172 82 0 78.4183 0 74V8Z" fill="#FFF1C2"/>
<path d="M51 32.2478V75.9459C51 79.2895 48.3469 82 45.0741 82H-29C-29 51.0721 -4.45857 26 25.8148 26C34.8947 26 43.4589 28.2554 51 32.2478Z" fill="#0C0C0D" fill-opacity="0.1"/>
</g>
<defs>
<clipPath id="clip0_574_32349">
<path d="M0 8C0 3.58172 3.58172 0 8 0H43C47.4183 0 51 3.58172 51 8V74C51 78.4183 47.4183 82 43 82H8C3.58172 82 0 78.4183 0 74V8Z" fill="white"/>
</clipPath>
</defs>
</svg>
