<svg width="25" height="24" viewBox="0 0 25 24" fill="none" xmlns="http://www.w3.org/2000/svg">
<g clip-path="url(#clip0_6465_55942)">
<path d="M13.25 3C8.28 3 4.25 7.03 4.25 12H1.25L5.14 15.89L5.21 16.03L9.25 12H6.25C6.25 8.13 9.38 5 13.25 5C17.12 5 20.25 8.13 20.25 12C20.25 15.87 17.12 19 13.25 19C11.32 19 9.57 18.21 8.31 16.94L6.89 18.36C8.52 19.99 10.76 21 13.25 21C18.22 21 22.25 16.97 22.25 12C22.25 7.03 18.22 3 13.25 3ZM12.25 8V13L16.5 15.52L17.27 14.24L13.75 12.15V8H12.25Z" fill="#3C4553"/>
</g>
<defs>
<clipPath id="clip0_6465_55942">
<rect width="24" height="24" fill="white" transform="translate(0.25)"/>
</clipPath>
</defs>
</svg>
