<svg width="25" height="25" viewBox="0 0 25 25" fill="none" xmlns="http://www.w3.org/2000/svg">
<g clip-path="url(#clip0_454_2198)">
<path d="M18.5 8.64453H17.5V6.64453C17.5 3.88453 15.26 1.64453 12.5 1.64453C9.74 1.64453 7.5 3.88453 7.5 6.64453V8.64453H6.5C5.4 8.64453 4.5 9.54453 4.5 10.6445V20.6445C4.5 21.7445 5.4 22.6445 6.5 22.6445H18.5C19.6 22.6445 20.5 21.7445 20.5 20.6445V10.6445C20.5 9.54453 19.6 8.64453 18.5 8.64453ZM9.5 6.64453C9.5 4.98453 10.84 3.64453 12.5 3.64453C14.16 3.64453 15.5 4.98453 15.5 6.64453V8.64453H9.5V6.64453ZM18.5 20.6445H6.5V10.6445H18.5V20.6445ZM12.5 17.6445C13.6 17.6445 14.5 16.7445 14.5 15.6445C14.5 14.5445 13.6 13.6445 12.5 13.6445C11.4 13.6445 10.5 14.5445 10.5 15.6445C10.5 16.7445 11.4 17.6445 12.5 17.6445Z" fill="#F5F5F5"/>
</g>
<defs>
<clipPath id="clip0_454_2198">
<rect width="24" height="24" fill="white" transform="translate(0.5 0.644531)"/>
</clipPath>
</defs>
</svg>
