<svg width="25" height="25" viewBox="0 0 25 25" fill="none" xmlns="http://www.w3.org/2000/svg">
<g clip-path="url(#clip0_421_22155)">
<path d="M10.8 8.34453C10.41 8.73453 10.41 9.35453 10.8 9.74453L12.7 11.6445H3.5C2.95 11.6445 2.5 12.0945 2.5 12.6445C2.5 13.1945 2.95 13.6445 3.5 13.6445H12.7L10.8 15.5445C10.41 15.9345 10.41 16.5545 10.8 16.9445C11.19 17.3345 11.81 17.3345 12.2 16.9445L15.79 13.3545C16.18 12.9645 16.18 12.3345 15.79 11.9445L12.2 8.34453C11.81 7.95453 11.19 7.95453 10.8 8.34453ZM20.5 19.6445H13.5C12.95 19.6445 12.5 20.0945 12.5 20.6445C12.5 21.1945 12.95 21.6445 13.5 21.6445H20.5C21.6 21.6445 22.5 20.7445 22.5 19.6445V5.64453C22.5 4.54453 21.6 3.64453 20.5 3.64453H13.5C12.95 3.64453 12.5 4.09453 12.5 4.64453C12.5 5.19453 12.95 5.64453 13.5 5.64453H20.5V19.6445Z" fill="#F5F5F5"/>
</g>
<defs>
<clipPath id="clip0_421_22155">
<rect width="24" height="24" fill="white" transform="translate(0.5 0.644531)"/>
</clipPath>
</defs>
</svg>
