<svg width="68" height="32" viewBox="0 0 68 32" fill="none" xmlns="http://www.w3.org/2000/svg">
<g clip-path="url(#clip0_469_7284)">
<path d="M0 15.134V0.0117188H11.1259V2.69577H3.15679V5.91179H10.5466V8.51314H3.15679V12.4504H11.4805V15.1344H0V15.134Z" fill="#3DB588"/>
<path d="M23.7888 3.9375L19.7807 15.3707C19.1344 17.2546 18.5823 18.437 18.1252 18.9179C17.6681 19.3985 16.8482 19.6391 15.6658 19.6391L14.2588 19.6037V17.2389C14.3296 17.2702 14.5188 17.2862 14.8261 17.2862C15.6144 17.2862 16.1266 17.1246 16.3632 16.8016C16.5129 16.5967 16.6664 16.1709 16.8244 15.5246L12.6387 3.9375H15.902L18.3376 12.2493L20.7024 3.9375H23.7884H23.7888Z" fill="url(#paint0_linear_469_7284)"/>
<path d="M28.2114 15.4165C27.1709 15.4165 26.3353 15.1211 25.7046 14.5299C25.0739 13.9387 24.7588 13.1583 24.7588 12.189C24.7588 11.2197 25.0445 10.3565 25.616 9.74149C26.1874 9.12682 27.017 8.74051 28.1048 8.58293L30.0557 8.31099C30.5601 8.24021 30.9818 8.12584 31.3208 7.96826C31.4628 7.89748 31.573 7.7712 31.652 7.58978C31.715 7.45567 31.7466 7.31783 31.7466 7.17589C31.7466 7.13641 31.7425 7.09319 31.7347 7.04588C31.6952 6.73073 31.5335 6.48635 31.2501 6.31275C30.9189 6.10004 30.438 5.9935 29.8076 5.9935C29.2403 5.9935 28.7985 6.12947 28.4833 6.40142C28.1678 6.67336 28.0024 7.06153 27.9867 7.56593H25.1492C25.2122 6.25762 25.6596 5.27639 26.491 4.62186C27.3225 3.9677 28.5384 3.64062 30.1384 3.64062C31.5336 3.64062 32.6332 3.93454 33.4372 4.52165C34.2411 5.10912 34.643 5.9108 34.643 6.9278V13.1825C34.643 13.6791 34.6844 14.03 34.7671 14.2349C34.8498 14.4398 35.0174 14.5974 35.2696 14.708V15.1219H32.0774C31.9433 14.6726 31.8565 14.2312 31.8174 13.7975L31.8055 13.7741C30.8831 14.8697 29.6851 15.4177 28.211 15.4177L28.2114 15.4165ZM31.7582 10.9947V9.71765C31.4114 9.90689 30.958 10.0604 30.3985 10.1788L29.3107 10.38C28.7981 10.4746 28.4081 10.6501 28.1402 10.906C27.872 11.1623 27.7383 11.4875 27.7383 11.8813C27.7383 12.3305 27.8582 12.6815 28.0989 12.9337C28.3391 13.1859 28.6722 13.3122 29.098 13.3122C30.0516 13.3122 30.8082 12.981 31.3681 12.319C31.4784 12.1849 31.5693 11.9919 31.6401 11.7397C31.7187 11.4875 31.7582 11.2394 31.7582 10.9947Z" fill="url(#paint1_linear_469_7284)"/>
<path d="M41.3587 15.4179C39.932 15.4179 38.7812 14.8621 37.9062 13.7509C37.0311 12.6396 36.5938 11.1774 36.5938 9.36436C36.5938 7.6459 37.0292 6.26271 37.9002 5.21442C38.7712 4.16613 39.9159 3.64199 41.3349 3.64199C42.6037 3.64199 43.6244 4.17805 44.3971 5.24981L44.5271 5.41521V0.0117188H47.4711V15.134H44.6098V13.7035L44.5625 13.7743C43.7503 14.8699 42.6827 15.4179 41.3584 15.4179H41.3587ZM42.1511 6.19565C41.3628 6.19565 40.7459 6.49926 40.3008 7.10611C39.8552 7.71333 39.6328 8.55635 39.6328 9.6363C39.6328 10.7163 39.8534 11.5161 40.2948 12.1073C40.7362 12.6985 41.3509 12.9939 42.1392 12.9939C42.9274 12.9939 43.5559 12.6825 44.0014 12.06C44.4466 11.4375 44.6694 10.5702 44.6694 9.45861C44.6694 8.43417 44.4466 7.63398 44.0014 7.05843C43.5559 6.48325 42.939 6.19528 42.1511 6.19528V6.19565Z" fill="url(#paint2_linear_469_7284)"/>
<path d="M55.2514 15.1928C54.7549 15.2323 54.1477 15.252 53.4305 15.252C52.3822 15.252 51.6312 15.0669 51.1782 14.6962C50.7249 14.3259 50.4984 13.715 50.4984 12.8634V6.00591H48.9375V3.9369H50.4984V0.933594H53.4425V3.9369H55.2514V6.00591H53.4425V12.3668C53.4425 12.6268 53.5211 12.7982 53.679 12.8813C53.8366 12.964 54.1558 13.0053 54.6368 13.0053H55.2514V15.1928Z" fill="url(#paint3_linear_469_7284)"/>
<path d="M67.0983 3.9375L63.0903 15.3707C62.444 17.2546 61.8919 18.437 61.4348 18.9179C60.9777 19.3985 60.1578 19.6391 58.9754 19.6391L57.5684 19.6037V17.2389C57.6391 17.2702 57.8284 17.2862 58.1357 17.2862C58.924 17.2862 59.4362 17.1246 59.6728 16.8016C59.8225 16.5967 59.976 16.1709 60.1339 15.5246L55.9482 3.9375H59.2116L61.6471 12.2493L64.0119 3.9375H67.098H67.0983Z" fill="url(#paint4_linear_469_7284)"/>
<path d="M4.91699 26.0541C5.17292 25.9934 5.58381 25.9531 5.98801 25.9531C6.57399 25.9531 6.95136 26.0541 7.22777 26.2832C7.46358 26.4583 7.61185 26.728 7.61185 27.0849C7.61185 27.5297 7.31532 27.9134 6.8437 28.0821V28.1022C7.27471 28.2032 7.78023 28.5604 7.78023 29.234C7.78023 29.6247 7.62526 29.928 7.38945 30.1433C7.07951 30.4331 6.56766 30.5676 5.82633 30.5676C5.42214 30.5676 5.1122 30.5408 4.91699 30.5136V26.0537V26.0541ZM5.50298 27.9134H6.03532C6.64849 27.9134 7.01208 27.5833 7.01208 27.1452C7.01208 26.6196 6.61459 26.4043 6.0219 26.4043C5.75257 26.4043 5.5976 26.4244 5.50335 26.4449V27.9134H5.50298ZM5.50298 30.083C5.62442 30.1031 5.78572 30.1098 5.99471 30.1098C6.60118 30.1098 7.16035 29.8874 7.16035 29.2273C7.16035 28.6141 6.62801 28.3514 5.98801 28.3514H5.50298V30.083Z" fill="#3DB588"/>
<path d="M8.90511 29.0049C8.91852 29.8065 9.42366 30.1366 10.0234 30.1366C10.4477 30.1366 10.7107 30.0625 10.9261 29.9682L11.0337 30.3925C10.8247 30.4868 10.4611 30.6015 9.94222 30.6015C8.93826 30.6015 8.33887 29.9347 8.33887 28.9508C8.33887 27.967 8.91815 27.1992 9.86809 27.1992C10.9391 27.1992 11.2155 28.129 11.2155 28.7284C11.2155 28.8499 11.2088 28.9374 11.1954 29.0045H8.90473L8.90511 29.0049ZM10.6433 28.5805C10.65 28.2099 10.4883 27.6239 9.82152 27.6239C9.21505 27.6239 8.95912 28.1696 8.91218 28.5805H10.6437H10.6433Z" fill="#3DB588"/>
<path d="M13.9837 25.9844V27.8843H16.1797V25.9844H16.7728V30.5251H16.1797V28.3961H13.9837V30.5251H13.3906V25.9844H13.9837Z" fill="#3DB588"/>
<path d="M18.1004 29.0049C18.1138 29.8065 18.619 30.1366 19.2187 30.1366C19.6431 30.1366 19.9061 30.0625 20.1214 29.9682L20.229 30.3925C20.02 30.4868 19.6565 30.6015 19.1375 30.6015C18.1336 30.6015 17.5342 29.9347 17.5342 28.9508C17.5342 27.967 18.1135 27.1992 19.0634 27.1992C20.1344 27.1992 20.4108 28.129 20.4108 28.7284C20.4108 28.8499 20.4041 28.9374 20.3907 29.0045H18.1L18.1004 29.0049ZM19.8386 28.5805C19.8453 28.2099 19.6837 27.6239 19.0168 27.6239C18.4104 27.6239 18.1544 28.1696 18.1075 28.5805H19.839H19.8386Z" fill="#3DB588"/>
<path d="M23.4349 29.7458C23.4349 30.0289 23.4483 30.305 23.4822 30.5274H22.9499L22.9025 30.1165H22.8824C22.7006 30.3724 22.3501 30.6015 21.8856 30.6015C21.2254 30.6015 20.8887 30.1366 20.8887 29.665C20.8887 28.8767 21.5894 28.4457 22.8489 28.4524V28.385C22.8489 28.1223 22.7748 27.6306 22.1079 27.6373C21.798 27.6373 21.4814 27.7249 21.2523 27.8798L21.1174 27.4823C21.3867 27.314 21.7842 27.1992 22.1955 27.1992C23.1924 27.1992 23.4349 27.8798 23.4349 28.5265V29.7458ZM22.8623 28.8633C22.2156 28.8499 21.4814 28.9642 21.4814 29.5975C21.4814 29.9883 21.7373 30.1634 22.0338 30.1634C22.4648 30.1634 22.7412 29.8941 22.8355 29.6177C22.8556 29.5502 22.8623 29.4828 22.8623 29.4292V28.8633Z" fill="#3DB588"/>
<path d="M24.3916 25.7422H24.9847V30.5254H24.3916V25.7422Z" fill="#3DB588"/>
<path d="M26.6951 26.4844V27.2659H27.5441V27.7174H26.6951V29.4758C26.6951 29.88 26.8095 30.1091 27.1399 30.1091C27.3016 30.1091 27.3959 30.0956 27.4834 30.0685L27.5102 30.52C27.3955 30.5606 27.2137 30.6008 26.9846 30.6008C26.7086 30.6008 26.4862 30.5065 26.3446 30.3516C26.1829 30.1698 26.1155 29.88 26.1155 29.4959V27.7174H25.6104V27.2659H26.1155V26.6595L26.6948 26.4844H26.6951Z" fill="#3DB588"/>
<path d="M28.2119 25.7422H28.805V27.7836H28.8184C28.9126 27.6153 29.0609 27.4603 29.2427 27.3593C29.4178 27.2584 29.6268 27.1976 29.8492 27.1976C30.2869 27.1976 30.9876 27.467 30.9876 28.5853V30.5254H30.3945V28.6527C30.3945 28.1271 30.1993 27.6894 29.6402 27.6894C29.2561 27.6894 28.9596 27.9587 28.8452 28.2754C28.8117 28.3629 28.805 28.4505 28.805 28.5585V30.5258H28.2119V25.7426V25.7422Z" fill="#3DB588"/>
<path d="M32.078 27.266L32.7854 29.1927C32.8662 29.4084 32.9471 29.6643 33.0011 29.8595H33.0145C33.0752 29.6643 33.1427 29.4147 33.2235 29.1789L33.8702 27.2656H34.4968L33.6076 29.5898C33.1833 30.7081 32.8934 31.274 32.4892 31.6313C32.1927 31.8805 31.91 31.9814 31.7617 32.0086L31.6134 31.5169C31.7617 31.4696 31.9569 31.3753 32.1324 31.2271C32.294 31.0989 32.4892 30.8698 32.6308 30.567C32.6576 30.5062 32.6781 30.4593 32.6781 30.4254C32.6781 30.3915 32.6647 30.3446 32.6308 30.2704L31.4316 27.2656H32.0783L32.078 27.266Z" fill="#3DB588"/>
<path d="M34.3887 31.36C34.5369 30.9558 34.7187 30.2349 34.7929 29.7432L35.453 29.6758C35.2913 30.2484 34.9948 30.9964 34.8063 31.313L34.3887 31.3603V31.36Z" fill="#3DB588"/>
<path d="M37.6152 26.0541C37.8712 25.9934 38.2821 25.9531 38.6862 25.9531C39.2722 25.9531 39.6496 26.0541 39.926 26.2832C40.1618 26.4583 40.3101 26.728 40.3101 27.0849C40.3101 27.5297 40.0136 27.9134 39.5419 28.0821V28.1022C39.973 28.2032 40.4785 28.5604 40.4785 29.234C40.4785 29.6247 40.3235 29.928 40.0877 30.1433C39.7777 30.4331 39.2659 30.5676 38.5246 30.5676C38.1204 30.5676 37.8104 30.5408 37.6152 30.5136V26.0537V26.0541ZM38.2012 27.9134H38.7336C39.3467 27.9134 39.7103 27.5833 39.7103 27.1452C39.7103 26.6196 39.3128 26.4043 38.7201 26.4043C38.4508 26.4043 38.2958 26.4244 38.2016 26.4449V27.9134H38.2012ZM38.2012 30.083C38.3227 30.1031 38.484 30.1098 38.693 30.1098C39.2994 30.1098 39.8586 29.8874 39.8586 29.2273C39.8586 28.6141 39.3262 28.3514 38.6862 28.3514H38.2012V30.083Z" fill="#3DB588"/>
<path d="M41.6034 29.0049C41.6168 29.8065 42.1219 30.1366 42.7217 30.1366C43.146 30.1366 43.409 30.0625 43.6243 29.9682L43.732 30.3925C43.523 30.4868 43.1594 30.6015 42.6405 30.6015C41.6365 30.6015 41.0371 29.9347 41.0371 28.9508C41.0371 27.967 41.6164 27.1992 42.5663 27.1992C43.6373 27.1992 43.9138 28.129 43.9138 28.7284C43.9138 28.8499 43.9071 28.9374 43.8936 29.0045H41.603L41.6034 29.0049ZM43.3416 28.5805C43.3483 28.2099 43.1866 27.6239 42.5198 27.6239C41.9133 27.6239 41.6574 28.1696 41.6104 28.5805H43.3419H43.3416Z" fill="#3DB588"/>
<path d="M46.0225 29.8105C46.2852 29.9789 46.6625 30.107 47.0667 30.107C47.6665 30.107 48.0167 29.7904 48.0167 29.3322C48.0167 28.9146 47.7741 28.6654 47.161 28.4363C46.42 28.1669 45.9618 27.7761 45.9618 27.1428C45.9618 26.4354 46.5478 25.9102 47.4303 25.9102C47.8885 25.9102 48.232 26.0178 48.4272 26.1326L48.2655 26.6109C48.124 26.5233 47.8207 26.3952 47.4098 26.3952C46.7899 26.3952 46.5541 26.7659 46.5541 27.0758C46.5541 27.5001 46.8302 27.7091 47.4568 27.9516C48.2249 28.2481 48.609 28.6184 48.609 29.2856C48.609 29.9863 48.0971 30.5991 47.0257 30.5991C46.588 30.5991 46.1097 30.4643 45.8672 30.3026L46.0222 29.8109L46.0225 29.8105Z" fill="#3DB588"/>
<path d="M49.3969 28.1492C49.3969 27.8057 49.3835 27.536 49.3701 27.2666H49.8887L49.9155 27.799H49.9356C50.1174 27.489 50.4206 27.1992 50.9664 27.1992C51.4045 27.1992 51.7412 27.4686 51.8828 27.8526H51.8962C51.9972 27.6641 52.132 27.5293 52.2669 27.4283C52.4621 27.2801 52.6711 27.1992 52.981 27.1992C53.4191 27.1992 54.0591 27.4823 54.0591 28.6141V30.5274H53.4798V28.6882C53.4798 28.0549 53.244 27.6842 52.7724 27.6842C52.4289 27.6842 52.1726 27.9335 52.065 28.2166C52.0381 28.3041 52.0177 28.4051 52.0177 28.5131V30.5274H51.4384V28.5738C51.4384 28.0549 51.2093 27.6846 50.7581 27.6846C50.3942 27.6846 50.1181 27.9811 50.0239 28.2773C49.9904 28.3581 49.9766 28.4658 49.9766 28.5671V30.5277H49.3973V28.1495L49.3969 28.1492Z" fill="#3DB588"/>
<path d="M57.306 29.7458C57.306 30.0289 57.3194 30.305 57.3533 30.5274H56.821L56.7736 30.1165H56.7535C56.5717 30.3724 56.2212 30.6015 55.7566 30.6015C55.0965 30.6015 54.7598 30.1366 54.7598 29.665C54.7598 28.8767 55.4605 28.4457 56.72 28.4524V28.385C56.72 28.1223 56.6459 27.6306 55.979 27.6373C55.6691 27.6373 55.3525 27.7249 55.1234 27.8798L54.9885 27.4823C55.2578 27.314 55.6553 27.1992 56.0666 27.1992C57.0635 27.1992 57.306 27.8798 57.306 28.5265V29.7458ZM56.7334 28.8633C56.0867 28.8499 55.3525 28.9642 55.3525 29.5975C55.3525 29.9883 55.6084 30.1634 55.9049 30.1634C56.3359 30.1634 56.6123 29.8941 56.7066 29.6177C56.7267 29.5502 56.7334 29.4828 56.7334 29.4292V28.8633Z" fill="#3DB588"/>
<path d="M58.2631 28.284C58.2631 27.8999 58.2564 27.5699 58.2363 27.2666H58.7549L58.7817 27.9134H58.8018C58.9501 27.4756 59.3137 27.1992 59.7112 27.1992C59.7719 27.1992 59.8188 27.2059 59.8728 27.2126V27.7718C59.8121 27.7584 59.7514 27.7584 59.6709 27.7584C59.2533 27.7584 58.9568 28.0683 58.876 28.5127C58.8625 28.5936 58.8558 28.6945 58.8558 28.7888V30.527H58.2628V28.2836L58.2631 28.284Z" fill="#3DB588"/>
<path d="M61.3407 26.4844V27.2659H62.1896V27.7174H61.3407V29.4758C61.3407 29.88 61.455 30.1091 61.7854 30.1091C61.9471 30.1091 62.0414 30.0956 62.1289 30.0685L62.1557 30.52C62.041 30.5606 61.8592 30.6008 61.6301 30.6008C61.3541 30.6008 61.1317 30.5065 60.9901 30.3516C60.8284 30.1698 60.761 29.88 60.761 29.4959V27.7174H60.2559V27.2659H60.761V26.6595L61.3403 26.4844H61.3407Z" fill="#3DB588"/>
</g>
<defs>
<linearGradient id="paint0_linear_469_7284" x1="12.6394" y1="11.7885" x2="23.7888" y2="11.7885" gradientUnits="userSpaceOnUse">
<stop stop-color="#4BAAD4"/>
<stop offset="0.99" stop-color="#006991"/>
</linearGradient>
<linearGradient id="paint1_linear_469_7284" x1="24.7588" y1="9.5284" x2="35.27" y2="9.5284" gradientUnits="userSpaceOnUse">
<stop stop-color="#4BAAD4"/>
<stop offset="0.99" stop-color="#006991"/>
</linearGradient>
<linearGradient id="paint2_linear_469_7284" x1="36.5941" y1="7.71519" x2="47.4715" y2="7.71519" gradientUnits="userSpaceOnUse">
<stop stop-color="#4BAAD4"/>
<stop offset="0.99" stop-color="#006991"/>
</linearGradient>
<linearGradient id="paint3_linear_469_7284" x1="48.9379" y1="8.0928" x2="55.2514" y2="8.0928" gradientUnits="userSpaceOnUse">
<stop stop-color="#4BAAD4"/>
<stop offset="0.99" stop-color="#006991"/>
</linearGradient>
<linearGradient id="paint4_linear_469_7284" x1="55.9486" y1="-39.1161" x2="67.0983" y2="-39.1161" gradientUnits="userSpaceOnUse">
<stop stop-color="#4BAAD4"/>
<stop offset="0.99" stop-color="#006991"/>
</linearGradient>
<clipPath id="clip0_469_7284">
<rect width="67.092" height="32" fill="white"/>
</clipPath>
</defs>
</svg>
