<svg width="88" height="94" viewBox="0 0 88 94" fill="none" xmlns="http://www.w3.org/2000/svg">
<g clip-path="url(#clip0_371_65628)">
<path d="M0 71.1494V51.3164H14.5916V54.8365H4.14013V59.0544H13.8319V62.466H4.14013V67.6297H15.0567V71.1499H0V71.1494Z" fill="#3DB588"/>
<path d="M31.1995 56.4648L25.943 71.4595C25.0953 73.9302 24.3713 75.4809 23.7718 76.1117C23.1723 76.7419 22.097 77.0575 20.5463 77.0575L18.701 77.0111V73.9097C18.7938 73.9507 19.042 73.9717 19.445 73.9717C20.4789 73.9717 21.1506 73.7597 21.4609 73.3361C21.6573 73.0674 21.8586 72.509 22.0657 71.6613L16.5762 56.4648H20.856L24.0503 67.3658L27.1517 56.4648H31.199H31.1995Z" fill="url(#paint0_linear_371_65628)"/>
<path d="M36.9988 71.5223C35.6342 71.5223 34.5383 71.1348 33.7112 70.3595C32.884 69.5841 32.4707 68.5606 32.4707 67.2893C32.4707 66.0181 32.8454 64.886 33.5949 64.0794C34.3444 63.2733 35.4324 62.7666 36.859 62.56L39.4177 62.2033C40.0792 62.1105 40.6322 61.9605 41.0768 61.7538C41.263 61.661 41.4076 61.4954 41.5112 61.2574C41.5937 61.0816 41.6353 60.9008 41.6353 60.7146C41.6353 60.6628 41.6299 60.6062 41.6196 60.5441C41.5679 60.1308 41.3558 59.8103 40.984 59.5826C40.5497 59.3037 39.9189 59.1639 39.0923 59.1639C38.3482 59.1639 37.7687 59.3423 37.3554 59.6989C36.9416 60.0556 36.7247 60.5647 36.7042 61.2262H32.9827C33.0653 59.5103 33.6521 58.2234 34.7425 57.365C35.833 56.5071 37.4277 56.0781 39.5261 56.0781C41.3558 56.0781 42.7981 56.4636 43.8524 57.2336C44.9067 58.0041 45.4339 59.0555 45.4339 60.3893V68.5923C45.4339 69.2436 45.4881 69.7038 45.5966 69.9725C45.7051 70.2412 45.9249 70.4479 46.2557 70.593V71.1358H42.0691C41.8932 70.5466 41.7794 69.9676 41.7281 69.3989L41.7125 69.3682C40.5028 70.8051 38.9315 71.5237 36.9983 71.5237L36.9988 71.5223ZM41.6504 65.723V64.0481C41.1956 64.2963 40.601 64.4976 39.8671 64.653L38.4405 64.9168C37.7683 65.0409 37.2567 65.271 36.9054 65.6067C36.5537 65.9428 36.3783 66.3693 36.3783 66.8858C36.3783 67.475 36.5356 67.9352 36.8512 68.266C37.1663 68.5967 37.6031 68.7623 38.1616 68.7623C39.4123 68.7623 40.4046 68.328 41.1389 67.4598C41.2835 67.2839 41.4027 67.0309 41.4955 66.7001C41.5986 66.3693 41.6504 66.0439 41.6504 65.723Z" fill="url(#paint1_linear_371_65628)"/>
<path d="M54.2415 71.5217C52.3702 71.5217 50.8611 70.7927 49.7134 69.3353C48.5658 67.8779 47.9922 65.9603 47.9922 63.5824C47.9922 61.3286 48.5633 59.5146 49.7056 58.1398C50.8479 56.7649 52.3492 56.0775 54.2102 56.0775C55.8743 56.0775 57.2129 56.7806 58.2262 58.1862L58.3967 58.4031V51.3164H62.2579V71.1494H58.5052V69.2733L58.4432 69.3661C57.3781 70.803 55.9778 71.5217 54.241 71.5217H54.2415ZM55.2807 59.4266C54.2468 59.4266 53.4378 59.8248 52.8539 60.6207C52.2696 61.4171 51.9779 62.5227 51.9779 63.9391C51.9779 65.3554 52.2672 66.4044 52.8461 67.1797C53.4251 67.9551 54.2312 68.3425 55.265 68.3425C56.2988 68.3425 57.123 67.9341 57.7074 67.1177C58.2912 66.3013 58.5834 65.1639 58.5834 63.706C58.5834 62.3625 58.2912 61.313 57.7074 60.5582C57.123 59.8038 56.314 59.4262 55.2807 59.4262V59.4266Z" fill="url(#paint2_linear_371_65628)"/>
<path d="M72.4624 71.2283C71.8111 71.2801 71.0148 71.306 70.0743 71.306C68.6994 71.306 67.7145 71.0631 67.1204 70.577C66.5258 70.0914 66.2287 69.2901 66.2287 68.1733V59.1797H64.1816V56.4662H66.2287V52.5273H70.0899V56.4662H72.4624V59.1797H70.0899V67.522C70.0899 67.863 70.193 68.0878 70.4001 68.1967C70.6068 68.3052 71.0255 68.3594 71.6562 68.3594H72.4624V71.2283Z" fill="url(#paint3_linear_371_65628)"/>
<path d="M88.0003 56.4648L82.7438 71.4595C81.8961 73.9302 81.1721 75.4809 80.5726 76.1117C79.9731 76.7419 78.8978 77.0575 77.3471 77.0575L75.5017 77.0111V73.9097C75.5946 73.9507 75.8428 73.9717 76.2458 73.9717C77.2796 73.9717 77.9514 73.7597 78.2617 73.3361C78.4581 73.0674 78.6594 72.509 78.8665 71.6613L73.377 56.4648H77.6568L80.8511 67.3658L83.9525 56.4648H87.9998H88.0003Z" fill="url(#paint4_linear_371_65628)"/>
<path d="M43.7876 41.9648V41.9922C43.9298 41.9922 44.071 41.9902 44.2122 41.9873C44.1721 41.9854 44.132 41.9839 44.0915 41.9815C43.9899 41.9766 43.8887 41.9707 43.7871 41.9648H43.7876Z" fill="#3DB588"/>
<path d="M41.1882 40.2151C40.3567 40.024 39.5364 39.7851 38.74 39.4778C37.9471 39.1627 37.1771 38.7904 36.4345 38.3673C36.3162 38.2984 36.199 38.2281 36.0822 38.1562C35.8418 39.2287 35.4026 40.3387 34.9395 41.3178C35.7842 41.7839 36.6587 42.1957 37.5592 42.5451C38.5187 42.9056 39.5051 43.1958 40.5086 43.4049C41.4032 43.5945 42.3129 43.7015 43.2231 43.7567V40.5356C42.5382 40.4721 41.8566 40.3729 41.1878 40.2151H41.1882Z" fill="#3DB588"/>
<path d="M32.813 44.0613C32.687 41.6664 30.7317 38.1907 28.9343 36.168C27.1368 34.1453 24.5601 31.5251 24.1932 29.204C23.8757 27.1935 26.2428 18.7232 26.8813 16.4948C26.9419 16.2828 27.2346 16.2569 27.3293 16.4562C27.8067 17.4622 27.9611 18.9577 27.559 20.8504C27.0836 23.0881 26.682 26.2467 27.0382 28.5019C27.2551 29.8733 28.7418 32.3806 29.3725 31.4128C30.272 30.0331 28.5986 25.056 29.8054 23.1882C29.9041 23.0353 30.1371 23.0675 30.1884 23.242C30.7899 25.2847 31.3835 27.6918 32.3294 29.628C33.9416 32.9283 35.5901 33.3495 35.7459 36.3884C35.9018 39.4273 32.8135 44.0604 32.8135 44.0604L32.813 44.0613Z" fill="url(#paint5_linear_371_65628)"/>
<path d="M55.1866 0C55.3127 2.39496 57.2679 5.87064 59.0654 7.89331C60.8628 9.91599 63.4395 12.5362 63.8064 14.8574C64.124 16.8678 61.7569 25.3377 61.1183 27.5665C61.0578 27.7785 60.7651 27.8044 60.6703 27.6051C60.193 26.5991 60.0386 25.1036 60.4407 23.2109C60.9161 20.9733 61.3177 17.8147 60.9615 15.5594C60.7446 14.188 59.2579 11.6807 58.6271 12.6486C57.7277 14.0283 59.401 19.0053 58.1943 20.8731C58.0956 21.026 57.8625 20.9938 57.8112 20.8194C57.2098 18.7767 56.6162 16.3695 55.6703 14.4333C54.058 11.133 52.4096 10.7119 52.2538 7.67297C52.0979 4.63407 55.1861 0.000977137 55.1861 0.000977137L55.1866 0Z" fill="url(#paint6_linear_371_65628)"/>
<path d="M45.0062 40.6105L45.6482 40.5885C45.8627 40.5846 46.0757 40.5577 46.2897 40.544C47.1437 40.4678 47.9953 40.3349 48.8312 40.1283C49.6652 39.9157 50.4885 39.6553 51.2887 39.329C52.0919 39.0085 52.8585 38.602 53.6036 38.1598C53.9798 37.9434 54.3359 37.6952 54.6965 37.4519L55.2193 37.062C55.3961 36.9345 55.5569 36.7874 55.7269 36.6516C56.3889 36.0868 57.0353 35.4927 57.6079 34.8278C57.7603 34.669 57.8908 34.4926 58.0325 34.3246L58.242 34.07C58.3109 33.984 58.3735 33.8936 58.4399 33.8057C58.5684 33.6274 58.7067 33.4549 58.8317 33.2732L59.2021 32.7235C59.3267 32.5408 59.4312 32.3454 59.5475 32.1568L59.718 31.8715L59.8035 31.7283L59.8797 31.5808C60.0815 31.1865 60.2965 30.7956 60.4694 30.3857C60.8119 29.6631 61.0733 28.9054 61.3073 28.1363C61.1862 28.216 61.0415 28.2609 60.8867 28.2609C60.5906 28.2609 60.3277 28.0948 60.2007 27.8271C59.6257 26.6154 59.5328 24.9812 59.932 23.1012C60.1602 22.0278 60.871 18.3176 60.4479 15.6393C60.3737 15.1697 60.1089 14.4931 59.7732 13.9151C59.4532 13.364 59.1757 13.0845 59.0326 12.9883C58.7585 13.5233 58.8928 14.923 59.0115 16.163C59.1923 18.0489 59.3794 19.9992 58.6334 21.1542C58.4976 21.3648 58.267 21.4904 58.0163 21.4904C57.9816 21.4904 57.9474 21.4874 57.9137 21.483C58.0632 22.3385 58.1409 23.2189 58.1409 24.1179C58.1409 24.7579 58.1013 25.3882 58.0246 26.0072L57.968 25.9896H35.2344C36.1016 29.8796 39.4473 32.7778 43.4423 32.7778C46.0313 32.7778 48.3471 31.5602 49.8929 29.6451L53.7155 34.8107C51.087 37.4196 47.5009 39.027 43.5464 39.027C43.4389 39.027 43.3314 39.0251 43.2239 39.0226V40.5333C43.3901 40.5489 43.5562 40.5626 43.7228 40.5743C44.1493 40.6085 44.5773 40.6061 45.0057 40.61L45.0062 40.6105Z" fill="#3DB588"/>
<path d="M53.4508 11.8814C52.5856 10.7195 51.8381 9.71553 51.7345 7.69725C51.713 7.27854 51.7477 6.83492 51.8244 6.37909C49.2262 5.11565 46.308 4.40625 43.2246 4.40625V9.2123C43.3316 9.20986 43.4391 9.2079 43.5471 9.2079C48.6599 9.2079 53.1577 11.8941 55.7642 15.9599C55.5913 15.5099 55.4061 15.0741 55.2038 14.6598C54.6 13.4238 53.9897 12.6044 53.4513 11.8814H53.4508Z" fill="#3DB588"/>
<path d="M35.752 20.402H51.134C49.8164 17.3421 46.8684 15.2109 43.443 15.2109C40.0176 15.2109 37.0696 17.3421 35.752 20.402Z" fill="#3DB588"/>
<path d="M62.9923 22.6333C62.9571 22.773 62.9215 22.9128 62.8863 23.0515C62.9044 23.3969 62.9137 23.7453 62.9137 24.0951C62.9137 34.8143 54.3476 43.5323 43.6875 43.7786C44.1546 43.7991 44.6221 43.7893 45.0892 43.782L45.8538 43.7351C46.1088 43.7204 46.3619 43.6823 46.6155 43.6559C50.6726 43.1879 54.5381 41.3675 57.4544 38.5821C58.9181 37.1966 60.1371 35.5696 61.0713 33.8127C62.002 32.0534 62.6415 30.1504 62.9674 28.2128C63.2742 26.3533 63.2742 24.462 62.9913 22.6328L62.9923 22.6333Z" fill="#3DB588"/>
<path d="M27.7996 16.2329C28.3746 17.4445 28.4674 19.0788 28.0683 20.9588C27.8401 22.0322 27.1292 25.7424 27.5523 28.4207C27.6266 28.8902 27.8914 29.5669 28.2271 30.1449C28.5471 30.696 28.8246 30.9754 28.9677 31.0717C29.1001 30.8132 29.1373 30.3525 29.1265 29.8053C28.9648 29.3861 28.8192 28.9606 28.6912 28.5292C28.4567 27.7015 28.2725 26.8578 28.1523 26.0023C28.0267 25.1473 27.9891 24.2801 28.0018 23.4139C28.0126 22.5476 28.0849 21.678 28.2402 20.8205C28.3961 19.9646 28.5915 19.1096 28.8739 18.279C29.1563 17.4489 29.4968 16.6355 29.8936 15.8445C29.9937 15.6476 30.1056 15.457 30.2111 15.2621C30.3196 15.0691 30.4198 14.8698 30.5438 14.6866L30.9 14.1237C30.9572 14.028 31.0222 13.9381 31.0871 13.8482L31.2806 13.5765L31.4741 13.3039L31.5708 13.1676L31.6759 13.0376L32.096 12.5163C32.2314 12.3375 32.3911 12.1812 32.5392 12.0131L32.7654 11.7644C32.8401 11.6809 32.9154 11.5973 32.997 11.5201C34.2536 10.2386 35.708 9.12176 37.3237 8.25211C37.7209 8.01955 38.143 7.83878 38.5578 7.63358C38.7669 7.53538 38.9829 7.45428 39.1959 7.3634C39.4094 7.27351 39.6239 7.18361 39.8442 7.11081L40.5019 6.87483C40.7237 6.8035 40.9484 6.74146 41.1727 6.67403L41.5103 6.57437L41.8523 6.49277L42.5387 6.32422C38.7635 6.4019 34.9366 7.8168 31.9006 10.3207C30.3836 11.5719 29.0654 13.085 28.0052 14.7701C27.7873 15.1219 27.5807 15.4815 27.3848 15.8479C27.5646 15.9158 27.7141 16.0506 27.8005 16.2329H27.7996Z" fill="#3DB588"/>
<path d="M62.9134 24.0983C62.9134 23.748 62.9042 23.4001 62.8861 23.0547C62.4224 24.8687 61.947 26.5724 61.6207 27.7112C61.5684 27.893 61.4555 28.0415 61.3075 28.1387C61.073 28.9077 60.8121 29.666 60.4696 30.3881C60.2967 30.798 60.0817 31.1884 59.8799 31.5831L59.8037 31.7307L59.7182 31.8738L59.5477 32.1592C59.4314 32.3477 59.3273 32.5427 59.2023 32.7259L58.8319 33.2755C58.7069 33.4573 58.5686 33.6298 58.4401 33.8081C58.3737 33.896 58.3111 33.9864 58.2422 34.0724L58.0326 34.3269C57.8905 34.4945 57.76 34.6714 57.6081 34.8302C57.0355 35.4951 56.3891 36.0892 55.7271 36.654C55.5571 36.7903 55.3958 36.9369 55.2195 37.0644L54.6967 37.4543C54.3361 37.6976 53.98 37.9458 53.6038 38.1622C52.8587 38.6044 52.0921 39.0108 51.2889 39.3313C50.4886 39.6577 49.6654 39.9181 48.8314 40.1306C47.9955 40.3378 47.1439 40.4702 46.2899 40.5464C46.0759 40.5601 45.8629 40.587 45.6484 40.5909L45.0064 40.6129C44.5784 40.609 44.15 40.6114 43.7234 40.5772C43.5568 40.5655 43.3907 40.5518 43.2246 40.5362V43.7573C43.335 43.7641 43.4459 43.7705 43.5563 43.7754C43.6003 43.7778 43.6438 43.7798 43.6878 43.7817C54.3478 43.5355 62.9139 34.8175 62.9139 24.0983H62.9134Z" fill="#3DB588"/>
<path d="M6.44922 85.4644C6.78487 85.3848 7.32376 85.332 7.85385 85.332C8.62237 85.332 9.11729 85.4644 9.47981 85.7649C9.78907 85.9945 9.98352 86.3483 9.98352 86.8163C9.98352 87.3997 9.59462 87.9029 8.9761 88.1242V88.1506C9.54137 88.283 10.2044 88.7515 10.2044 89.6349C10.2044 90.1474 10.0011 90.5451 9.69185 90.8275C9.28536 91.2076 8.61407 91.3839 7.64181 91.3839C7.11172 91.3839 6.70523 91.3488 6.44922 91.3131V85.4639V85.4644ZM7.21774 87.9029H7.9159C8.72009 87.9029 9.19693 87.47 9.19693 86.8955C9.19693 86.2061 8.67563 85.9237 7.89831 85.9237C7.54508 85.9237 7.34183 85.9501 7.21823 85.9769V87.9029H7.21774ZM7.21774 90.7483C7.37701 90.7747 7.58856 90.7835 7.86265 90.7835C8.65804 90.7835 9.39138 90.4918 9.39138 89.6261C9.39138 88.8219 8.69321 88.4774 7.85385 88.4774H7.21774V90.7483Z" fill="#3DB588"/>
<path d="M11.6801 89.3368C11.6977 90.3882 12.3602 90.8211 13.1468 90.8211C13.7033 90.8211 14.0482 90.7239 14.3306 90.6003L14.4718 91.1568C14.1977 91.2804 13.7209 91.4308 13.0403 91.4308C11.7236 91.4308 10.9375 90.5563 10.9375 89.266C10.9375 87.9757 11.6972 86.9688 12.9431 86.9688C14.3477 86.9688 14.7102 88.1882 14.7102 88.9743C14.7102 89.1336 14.7014 89.2484 14.6838 89.3364H11.6796L11.6801 89.3368ZM13.9598 88.7804C13.9686 88.2942 13.7565 87.5257 12.882 87.5257C12.0866 87.5257 11.751 88.2415 11.6894 88.7804H13.9603H13.9598Z" fill="#3DB588"/>
<path d="M18.3403 85.375V87.8667H21.2204V85.375H21.9982V91.3302H21.2204V88.538H18.3403V91.3302H17.5625V85.375H18.3403Z" fill="#3DB588"/>
<path d="M23.7387 89.3368C23.7563 90.3882 24.4188 90.8211 25.2054 90.8211C25.7619 90.8211 26.1068 90.7239 26.3892 90.6003L26.5304 91.1568C26.2563 91.2804 25.7795 91.4308 25.0989 91.4308C23.7822 91.4308 22.9961 90.5563 22.9961 89.266C22.9961 87.9757 23.7558 86.9688 25.0017 86.9688C26.4063 86.9688 26.7688 88.1882 26.7688 88.9743C26.7688 89.1336 26.76 89.2484 26.7424 89.3364H23.7382L23.7387 89.3368ZM26.0184 88.7804C26.0272 88.2942 25.8151 87.5257 24.9406 87.5257C24.1452 87.5257 23.8096 88.2415 23.748 88.7804H26.0189H26.0184Z" fill="#3DB588"/>
<path d="M30.7358 90.3086C30.7358 90.6799 30.7534 91.0419 30.7979 91.3336H30.0997L30.0377 90.7947H30.0113C29.7729 91.1304 29.3131 91.4308 28.7039 91.4308C27.8382 91.4308 27.3965 90.8211 27.3965 90.2026C27.3965 89.1688 28.3155 88.6035 29.9673 88.6123V88.5239C29.9673 88.1794 29.8701 87.5345 28.9956 87.5433C28.5891 87.5433 28.1738 87.6581 27.8733 87.8614L27.6965 87.3401C28.0497 87.1192 28.571 86.9688 29.1104 86.9688C30.4178 86.9688 30.7358 87.8614 30.7358 88.7095V90.3086ZM29.9849 89.1512C29.1368 89.1336 28.1738 89.2836 28.1738 90.1142C28.1738 90.6267 28.5094 90.8563 28.8983 90.8563C29.4636 90.8563 29.8261 90.5031 29.9497 90.1405C29.9761 90.0521 29.9849 89.9637 29.9849 89.8933V89.1512Z" fill="#3DB588"/>
<path d="M31.9902 85.0586H32.768V91.3318H31.9902V85.0586Z" fill="#3DB588"/>
<path d="M35.0126 86.0312V87.0563H36.126V87.6484H35.0126V89.9545C35.0126 90.4846 35.1625 90.785 35.5959 90.785C35.8079 90.785 35.9315 90.7674 36.0464 90.7318L36.0815 91.3239C35.9311 91.3772 35.6926 91.4299 35.3922 91.4299C35.0301 91.4299 34.7385 91.3063 34.5528 91.1031C34.3408 90.8647 34.2523 90.4846 34.2523 89.9808V87.6484H33.5898V87.0563H34.2523V86.2609L35.0121 86.0312H35.0126Z" fill="#3DB588"/>
<path d="M37 85.0586H37.7778V87.736H37.7954C37.919 87.5151 38.1134 87.3119 38.3519 87.1795C38.5815 87.0471 38.8556 86.9674 39.1473 86.9674C39.7213 86.9674 40.6403 87.3207 40.6403 88.7874V91.3318H39.8625V88.8758C39.8625 88.1864 39.6065 87.6123 38.8732 87.6123C38.3695 87.6123 37.9806 87.9656 37.8306 88.3809C37.7866 88.4957 37.7778 88.6105 37.7778 88.7522V91.3323H37V85.0591V85.0586Z" fill="#3DB588"/>
<path d="M42.0703 87.0552L42.9981 89.5821C43.1041 89.8649 43.2102 90.2006 43.281 90.4566H43.2986C43.3782 90.2006 43.4666 89.8732 43.5727 89.564L44.4208 87.0547H45.2426L44.0764 90.1029C43.5199 91.5696 43.1398 92.3117 42.6097 92.7802C42.2208 93.1071 41.85 93.2395 41.6555 93.2751L41.4611 92.6302C41.6555 92.5682 41.9115 92.4446 42.1417 92.2501C42.3537 92.0821 42.6097 91.7816 42.7954 91.3844C42.8305 91.3048 42.8574 91.2432 42.8574 91.1987C42.8574 91.1543 42.8398 91.0927 42.7954 90.9955L41.2227 87.0547H42.0708L42.0703 87.0552Z" fill="#3DB588"/>
<path d="M45.1016 92.4276C45.296 91.8975 45.5344 90.9521 45.6317 90.3072L46.4974 90.2188C46.2854 90.9697 45.8965 91.9507 45.6492 92.366L45.1016 92.4281V92.4276Z" fill="#3DB588"/>
<path d="M49.334 85.4644C49.6696 85.3848 50.2085 85.332 50.7386 85.332C51.5071 85.332 52.0021 85.4644 52.3646 85.7649C52.6738 85.9945 52.8683 86.3483 52.8683 86.8163C52.8683 87.3997 52.4794 87.9029 51.8609 88.1242V88.1506C52.4261 88.283 53.0891 88.7515 53.0891 89.6349C53.0891 90.1474 52.8859 90.5451 52.5766 90.8275C52.1701 91.2076 51.4988 91.3839 50.5266 91.3839C49.9965 91.3839 49.59 91.3488 49.334 91.3131V85.4639V85.4644ZM50.1025 87.9029H50.8007C51.6049 87.9029 52.0817 87.47 52.0817 86.8955C52.0817 86.2061 51.5604 85.9237 50.7831 85.9237C50.4298 85.9237 50.2266 85.9501 50.103 85.9769V87.9029H50.1025ZM50.1025 90.7483C50.2618 90.7747 50.4733 90.7835 50.7474 90.7835C51.5428 90.7835 52.2761 90.4918 52.2761 89.6261C52.2761 88.8219 51.578 88.4774 50.7386 88.4774H50.1025V90.7483Z" fill="#3DB588"/>
<path d="M54.5629 89.3368C54.5805 90.3882 55.243 90.8211 56.0296 90.8211C56.5861 90.8211 56.931 90.7239 57.2134 90.6003L57.3546 91.1568C57.0805 91.2804 56.6037 91.4308 55.9231 91.4308C54.6064 91.4308 53.8203 90.5563 53.8203 89.266C53.8203 87.9757 54.58 86.9688 55.8259 86.9688C57.2305 86.9688 57.593 88.1882 57.593 88.9743C57.593 89.1336 57.5843 89.2484 57.5667 89.3364H54.5625L54.5629 89.3368ZM56.8426 88.7804C56.8514 88.2942 56.6394 87.5257 55.7648 87.5257C54.9694 87.5257 54.6338 88.2415 54.5722 88.7804H56.8431H56.8426Z" fill="#3DB588"/>
<path d="M60.358 90.3966C60.7025 90.6174 61.1974 90.7855 61.7275 90.7855C62.5141 90.7855 62.9733 90.3702 62.9733 89.7692C62.9733 89.2216 62.6553 88.8947 61.8511 88.5942C60.8793 88.241 60.2784 87.7285 60.2784 86.8979C60.2784 85.9701 61.0469 85.2812 62.2043 85.2812C62.8053 85.2812 63.2557 85.4224 63.5117 85.5729L63.2997 86.2003C63.114 86.0854 62.7164 85.9174 62.1775 85.9174C61.3645 85.9174 61.0552 86.4035 61.0552 86.81C61.0552 87.3665 61.4172 87.6406 62.239 87.9586C63.2464 88.3475 63.7502 88.8331 63.7502 89.7082C63.7502 90.6272 63.0789 91.4309 61.6737 91.4309C61.0997 91.4309 60.4724 91.254 60.1543 91.042L60.3575 90.397L60.358 90.3966Z" fill="#3DB588"/>
<path d="M64.7852 88.2146C64.7852 87.7641 64.7676 87.4104 64.75 87.0572H65.4301L65.4653 87.7553H65.4916C65.7301 87.3489 66.1278 86.9688 66.8435 86.9688C67.4181 86.9688 67.8597 87.322 68.0454 87.8257H68.063C68.1954 87.5785 68.3722 87.4016 68.5491 87.2692C68.8051 87.0748 69.0792 86.9688 69.4857 86.9688C70.0602 86.9688 70.8996 87.3401 70.8996 88.8243V91.3336H70.1399V88.9216C70.1399 88.091 69.8306 87.6049 69.2121 87.6049C68.7616 87.6049 68.4255 87.9317 68.2843 88.303C68.2491 88.4178 68.2223 88.5502 68.2223 88.6919V91.3336H67.4625V88.7716C67.4625 88.091 67.1621 87.6054 66.5704 87.6054C66.0931 87.6054 65.731 87.9943 65.6074 88.3827C65.5635 88.4887 65.5454 88.6299 65.5454 88.7628V91.3341H64.7857V88.2151L64.7852 88.2146Z" fill="#3DB588"/>
<path d="M75.1577 90.3086C75.1577 90.6799 75.1753 91.0419 75.2198 91.3336H74.5216L74.4596 90.7947H74.4332C74.1948 91.1304 73.735 91.4308 73.1258 91.4308C72.26 91.4308 71.8184 90.8211 71.8184 90.2026C71.8184 89.1688 72.7374 88.6035 74.3892 88.6123V88.5239C74.3892 88.1794 74.292 87.5345 73.4174 87.5433C73.011 87.5433 72.5957 87.6581 72.2952 87.8614L72.1183 87.3401C72.4716 87.1192 72.9929 86.9688 73.5323 86.9688C74.8397 86.9688 75.1577 87.8614 75.1577 88.7095V90.3086ZM74.4068 89.1512C73.5586 89.1336 72.5957 89.2836 72.5957 90.1142C72.5957 90.6267 72.9313 90.8563 73.3202 90.8563C73.8855 90.8563 74.248 90.5031 74.3716 90.1405C74.398 90.0521 74.4068 89.9637 74.4068 89.8933V89.1512Z" fill="#3DB588"/>
<path d="M76.4121 88.3915C76.4121 87.8877 76.4033 87.4549 76.377 87.0572H77.057L77.0922 87.9053H77.1186C77.313 87.3313 77.7899 86.9688 78.3112 86.9688C78.3908 86.9688 78.4524 86.9775 78.5232 86.9863V87.7197C78.4436 87.7021 78.364 87.7021 78.2584 87.7021C77.7107 87.7021 77.3218 88.1086 77.2158 88.6914C77.1982 88.7975 77.1894 88.9299 77.1894 89.0535V91.3331H76.4116V88.391L76.4121 88.3915Z" fill="#3DB588"/>
<path d="M80.4501 86.0312V87.0563H81.5635V87.6484H80.4501V89.9545C80.4501 90.4846 80.6 90.785 81.0334 90.785C81.2454 90.785 81.3691 90.7674 81.4839 90.7318L81.519 91.3239C81.3686 91.3772 81.1301 91.4299 80.8297 91.4299C80.4676 91.4299 80.176 91.3063 79.9903 91.1031C79.7783 90.8647 79.6898 90.4846 79.6898 89.9808V87.6484H79.0273V87.0563H79.6898V86.2609L80.4496 86.0312H80.4501Z" fill="#3DB588"/>
</g>
<defs>
<linearGradient id="paint0_linear_371_65628" x1="16.5771" y1="66.7614" x2="31.1995" y2="66.7614" gradientUnits="userSpaceOnUse">
<stop stop-color="#4BAAD4"/>
<stop offset="0.99" stop-color="#006991"/>
</linearGradient>
<linearGradient id="paint1_linear_371_65628" x1="32.4707" y1="63.8" x2="46.2562" y2="63.8" gradientUnits="userSpaceOnUse">
<stop stop-color="#4BAAD4"/>
<stop offset="0.99" stop-color="#006991"/>
</linearGradient>
<linearGradient id="paint2_linear_371_65628" x1="47.9927" y1="61.4195" x2="62.2584" y2="61.4195" gradientUnits="userSpaceOnUse">
<stop stop-color="#4BAAD4"/>
<stop offset="0.99" stop-color="#006991"/>
</linearGradient>
<linearGradient id="paint3_linear_371_65628" x1="64.1821" y1="61.9167" x2="72.4624" y2="61.9167" gradientUnits="userSpaceOnUse">
<stop stop-color="#4BAAD4"/>
<stop offset="0.99" stop-color="#006991"/>
</linearGradient>
<linearGradient id="paint4_linear_371_65628" x1="73.3774" y1="-9.29377e-06" x2="88.0003" y2="-9.29377e-06" gradientUnits="userSpaceOnUse">
<stop stop-color="#4BAAD4"/>
<stop offset="0.99" stop-color="#006991"/>
</linearGradient>
<linearGradient id="paint5_linear_371_65628" x1="24.1639" y1="30.1909" x2="35.7513" y2="30.1909" gradientUnits="userSpaceOnUse">
<stop stop-color="#4BAAD4"/>
<stop offset="0.99" stop-color="#006991"/>
</linearGradient>
<linearGradient id="paint6_linear_371_65628" x1="52.2484" y1="13.8705" x2="63.8353" y2="13.8705" gradientUnits="userSpaceOnUse">
<stop stop-color="#4BAAD4"/>
<stop offset="0.99" stop-color="#006991"/>
</linearGradient>
<clipPath id="clip0_371_65628">
<rect width="88" height="93.2565" fill="white"/>
</clipPath>
</defs>
</svg>
