<svg width="40" height="40" viewBox="0 0 40 40" fill="none" xmlns="http://www.w3.org/2000/svg">
<g clip-path="url(#clip0_624_11360)">
<path opacity="0.3" d="M21.666 18.4474L24.9993 16.4474V6.66406H21.666V18.4474Z" fill="#3DB588"/>
<path opacity="0.3" d="M15 6.66406V16.4474L18.3333 18.4474V6.66406H15Z" fill="#3DB588"/>
<path d="M28.3327 17.382V3.33203H11.666V17.382C11.666 17.9654 11.966 18.5154 12.4827 18.8154L19.4493 22.9987L17.7993 26.8987L12.116 27.382L16.4327 31.1154L15.116 36.6654L19.9993 33.7154L24.8827 36.6654L23.5827 31.1154L27.8993 27.382L22.216 26.8987L20.566 22.9987L27.5327 18.8154C28.0327 18.5154 28.3327 17.982 28.3327 17.382ZM18.3327 18.4487L14.9993 16.4487V6.66536H18.3327V18.4487ZM24.9993 16.4487L21.666 18.4487V6.66536H24.9993V16.4487Z" fill="#3DB588"/>
</g>
<defs>
<clipPath id="clip0_624_11360">
<rect width="40" height="40" fill="white"/>
</clipPath>
</defs>
</svg>
