<svg width="18" height="17" viewBox="0 0 18 17" fill="none" xmlns="http://www.w3.org/2000/svg">
<path d="M8.99974 16.332C9.91641 16.332 10.6664 15.582 10.6664 14.6654H7.33307C7.33307 15.582 8.08307 16.332 8.99974 16.332ZM13.9997 7.16536C13.9997 4.60703 12.6414 2.46536 10.2497 1.8987V1.33203C10.2497 0.640365 9.69141 0.0820312 8.99974 0.0820312C8.30807 0.0820312 7.74974 0.640365 7.74974 1.33203V1.8987C5.36641 2.46536 3.99974 4.5987 3.99974 7.16536V11.332L2.33307 12.9987V13.832H15.6664V12.9987L13.9997 11.332V7.16536ZM12.3331 12.1654H5.66641V7.16536C5.66641 5.0987 6.92474 3.41536 8.99974 3.41536C11.0747 3.41536 12.3331 5.0987 12.3331 7.16536V12.1654ZM5.31641 1.3987L4.12474 0.207031C2.12474 1.73203 0.808073 4.08203 0.691406 6.7487H2.35807C2.48307 4.54036 3.61641 2.60703 5.31641 1.3987ZM15.6414 6.7487H17.3081C17.1831 4.08203 15.8664 1.73203 13.8747 0.207031L12.6914 1.3987C14.3747 2.60703 15.5164 4.54036 15.6414 6.7487Z" fill="#3DB588"/>
</svg>
