<svg width="25" height="24" viewBox="0 0 25 24" fill="none" xmlns="http://www.w3.org/2000/svg">
<g clip-path="url(#clip0_6465_53962)">
<path opacity="0.3" d="M5.25 5V19H19.25V7.83L16.42 5H5.25ZM12.25 18C10.59 18 9.25 16.66 9.25 15C9.25 13.34 10.59 12 12.25 12C13.91 12 15.25 13.34 15.25 15C15.25 16.66 13.91 18 12.25 18ZM15.25 10H6.25V6H15.25V10Z" fill="#3C4553"/>
<path d="M17.25 3H5.25C4.14 3 3.25 3.9 3.25 5V19C3.25 20.1 4.14 21 5.25 21H19.25C20.35 21 21.25 20.1 21.25 19V7L17.25 3ZM19.25 19H5.25V5H16.42L19.25 7.83V19ZM12.25 12C10.59 12 9.25 13.34 9.25 15C9.25 16.66 10.59 18 12.25 18C13.91 18 15.25 16.66 15.25 15C15.25 13.34 13.91 12 12.25 12ZM6.25 6H15.25V10H6.25V6Z" fill="#323232"/>
</g>
<defs>
<clipPath id="clip0_6465_53962">
<rect width="24" height="24" fill="white" transform="translate(0.25)"/>
</clipPath>
</defs>
</svg>
