<svg width="14" height="14" viewBox="0 0 14 14" fill="none" xmlns="http://www.w3.org/2000/svg">
<path d="M7.00065 0.332031C3.32065 0.332031 0.333984 3.3187 0.333984 6.9987C0.333984 10.6787 3.32065 13.6654 7.00065 13.6654C10.6807 13.6654 13.6673 10.6787 13.6673 6.9987C13.6673 3.3187 10.6807 0.332031 7.00065 0.332031ZM7.00065 12.332C4.06065 12.332 1.66732 9.9387 1.66732 6.9987C1.66732 4.0587 4.06065 1.66536 7.00065 1.66536C9.94065 1.66536 12.334 4.0587 12.334 6.9987C12.334 9.9387 9.94065 12.332 7.00065 12.332ZM10.0607 4.05203L5.66732 8.44536L3.94065 6.72536L3.00065 7.66536L5.66732 10.332L11.0007 4.9987L10.0607 4.05203Z" fill="#EBFFEE"/>
</svg>
