<svg width="23" height="16" viewBox="0 0 23 16" fill="none" xmlns="http://www.w3.org/2000/svg">
<path d="M11.5 0.523865C6.5 0.523865 2.23 3.63386 0.5 8.02386C2.23 12.4139 6.5 15.5239 11.5 15.5239C16.5 15.5239 20.77 12.4139 22.5 8.02386C20.77 3.63386 16.5 0.523865 11.5 0.523865ZM11.5 13.5239C7.71 13.5239 4.33 11.3939 2.68 8.02386C4.33 4.65386 7.71 2.52386 11.5 2.52386C15.29 2.52386 18.67 4.65386 20.32 8.02386C18.67 11.3939 15.29 13.5239 11.5 13.5239ZM11.5 3.52386C9.02 3.52386 7 5.54386 7 8.02386C7 10.5039 9.02 12.5239 11.5 12.5239C13.98 12.5239 16 10.5039 16 8.02386C16 5.54386 13.98 3.52386 11.5 3.52386ZM11.5 10.5239C10.12 10.5239 9 9.40386 9 8.02386C9 6.64386 10.12 5.52386 11.5 5.52386C12.88 5.52386 14 6.64386 14 8.02386C14 9.40386 12.88 10.5239 11.5 10.5239Z" fill="#F5F5F5"/>
</svg>
